<?xml version="1.0" standalone="no"?>
<!DOCTYPE svg PUBLIC "-//W3C//DTD SVG 20010904//EN"
 "http://www.w3.org/TR/2001/REC-SVG-20010904/DTD/svg10.dtd">
<svg version="1.0" xmlns="http://www.w3.org/2000/svg"
 width="260.000000pt" height="260.000000pt" viewBox="0 0 260.000000 260.000000"
 preserveAspectRatio="xMidYMid meet">
<metadata>
Created by potrace 1.14, written by Peter Selinger 2001-2017
</metadata>
<g transform="translate(0.000000,260.000000) scale(0.100000,-0.100000)"
fill="#000000" stroke="none">
<path d="M610 2300 c0 -6 -4 -9 -9 -6 -13 8 -42 -29 -47 -61 -6 -44 -12 -78
-14 -78 -1 0 -3 -18 -6 -40 -4 -40 -11 -78 -14 -82 -1 -2 -2 -15 -3 -30 -1
-27 10 -31 68 -24 6 0 11 16 11 34 1 17 4 46 7 62 4 17 9 46 12 65 3 19 11 40
17 47 12 15 71 45 63 32 -4 -5 11 -9 32 -10 21 0 49 -3 63 -6 14 -3 37 -6 53
-7 15 0 27 -4 27 -7 0 -3 12 -6 28 -6 55 -2 127 -16 133 -25 4 -6 9 -6 14 1 4
8 11 9 18 2 7 -5 17 -10 22 -10 73 -5 124 -15 118 -25 -4 -6 1 -5 10 3 9 7 17
9 17 4 0 -5 16 -8 35 -8 20 1 38 -1 40 -5 2 -3 19 -7 37 -8 32 -3 73 -9 73
-12 0 -1 49 -9 100 -15 17 -2 30 -4 30 -5 0 -1 11 -3 25 -5 14 -1 45 -6 70
-10 25 -5 56 -9 70 -11 14 -1 25 -3 25 -4 0 -1 14 -3 30 -5 17 -2 41 -6 55 -9
14 -4 44 -7 68 -8 23 -1 42 -6 42 -11 0 -4 18 -6 40 -4 21 2 43 1 47 -4 11
-10 152 -31 164 -24 5 4 9 2 9 -3 0 -5 12 -9 28 -10 15 -1 38 -4 52 -7 14 -4
43 -8 65 -11 54 -6 106 -24 100 -34 -3 -5 0 -10 7 -12 13 -5 14 -77 2 -128 -6
-26 -9 -45 -20 -125 -3 -27 -12 -53 -18 -57 -8 -5 -7 -8 2 -8 8 0 10 -5 5 -12
-4 -7 -8 -26 -9 -43 -1 -16 -3 -30 -4 -30 -1 0 -3 -11 -5 -25 -3 -24 -6 -44
-21 -122 -4 -18 -8 -51 -9 -73 -2 -22 -4 -40 -5 -40 -1 0 -3 -11 -6 -25 -2
-14 -7 -38 -10 -55 -3 -16 -7 -43 -9 -60 -2 -16 -6 -46 -10 -65 -16 -85 -22
-130 -16 -130 3 0 -1 -5 -9 -10 -11 -7 -11 -10 -2 -10 8 0 10 -5 5 -12 -4 -7
-8 -21 -9 -30 -1 -10 -2 -19 -4 -20 -3 -4 -11 -67 -13 -101 -1 -15 -6 -27 -10
-27 -5 0 -5 -4 -2 -10 9 -14 -26 -70 -45 -71 -8 -1 -27 -2 -42 -3 -16 -2 -28
2 -28 8 0 6 -5 4 -10 -4 -6 -10 -10 -11 -10 -2 0 6 -4 12 -10 12 -5 0 -9 -19
-8 -43 0 -32 5 -43 17 -44 9 0 38 -4 66 -8 82 -11 91 -10 112 15 17 20 21 31
28 90 2 19 7 49 10 65 4 17 8 41 10 55 2 14 4 26 6 28 1 1 2 14 3 30 1 15 4
32 7 37 4 6 5 24 4 40 -1 17 2 32 6 35 4 3 10 28 12 55 3 28 6 50 7 50 1 0 3
12 5 26 2 15 6 44 10 65 16 102 19 121 18 142 -1 12 2 22 6 22 4 0 8 17 9 38
1 20 6 51 10 67 5 17 8 40 7 53 -1 12 1 22 5 22 4 0 6 10 6 23 -1 12 0 26 3
32 3 5 7 30 9 55 2 25 7 47 10 50 4 3 8 21 9 40 1 43 22 179 30 200 8 23 7 75
-2 90 -6 9 -4 11 6 6 8 -4 1 3 -15 15 -16 13 -39 24 -50 26 -35 5 -61 10 -61
12 0 1 -22 4 -49 6 -27 2 -60 6 -75 10 -14 4 -39 9 -56 11 -16 2 -41 6 -55 9
-14 3 -47 8 -74 10 -27 3 -54 9 -60 13 -6 4 -28 8 -48 7 -21 0 -38 4 -38 10 0
5 -5 3 -10 -5 -5 -8 -10 -10 -10 -5 0 6 -8 11 -17 12 -42 4 -80 10 -89 15 -5
2 -19 3 -31 2 -13 0 -23 2 -23 5 0 4 -17 8 -37 9 -43 3 -98 10 -98 12 0 2 -32
7 -80 14 -56 7 -110 17 -135 23 -14 3 -38 7 -55 9 -35 3 -90 11 -125 18 -14 3
-43 8 -65 11 -22 3 -49 7 -60 9 -11 2 -40 7 -65 11 -48 8 -72 12 -80 15 -3 1
-12 2 -22 1 -9 -1 -19 3 -23 9 -4 7 -12 7 -26 0 -11 -6 -19 -7 -19 -1 0 5 -15
8 -34 7 -19 -1 -32 2 -30 6 2 4 -4 7 -13 6 -10 0 -34 3 -53 6 -19 3 -52 7 -72
10 -20 2 -46 7 -58 11 -12 4 -20 2 -20 -5z"/>
<path d="M113 1944 c4 -4 -3 -12 -15 -18 -13 -6 -27 -21 -33 -32 -9 -19 -12
-1364 -3 -1407 5 -21 21 -38 39 -40 8 -2 20 -6 27 -10 7 -5 12 -3 12 5 0 8 3
9 8 3 9 -13 42 -16 42 -3 0 5 6 6 12 1 18 -11 31 -11 46 0 7 6 12 6 12 -1 0
-12 33 -10 42 3 5 6 8 5 8 -2 0 -7 5 -13 11 -13 5 0 7 5 3 12 -4 7 -3 8 4 4
20 -12 51 -15 57 -5 4 5 12 6 18 2 19 -12 127 -10 127 2 0 6 3 7 8 0 4 -5 16
-10 27 -10 11 0 23 5 27 10 5 6 8 6 8 -2 0 -11 7 -11 45 -3 6 1 12 1 15 0 17
-8 106 -4 112 5 5 6 8 6 8 0 0 -11 69 -13 86 -2 6 3 14 3 18 0 10 -10 106 -10
106 0 0 5 6 5 13 0 17 -11 30 -11 45 0 7 6 12 6 12 0 0 -5 9 -9 20 -9 11 0 20
5 20 11 0 6 3 7 8 0 9 -13 42 -16 42 -3 0 5 6 6 13 1 17 -11 30 -11 45 0 7 6
12 6 12 -1 0 -12 33 -10 42 3 5 6 8 6 8 -1 0 -14 60 -13 60 1 0 7 3 7 8 0 4
-5 16 -10 27 -10 11 0 23 5 27 10 5 6 8 6 8 -2 0 -11 7 -11 45 -3 6 1 12 1 15
0 19 -8 110 -4 110 4 0 7 3 8 8 1 10 -14 72 -14 72 -1 0 7 3 7 8 1 4 -5 16
-10 27 -10 11 0 23 5 27 10 5 6 8 6 8 -2 0 -11 7 -11 45 -3 6 1 12 1 15 0 19
-8 110 -4 110 4 0 7 3 8 8 1 9 -13 52 -15 52 -2 0 6 5 6 13 0 11 -10 21 -10
57 -2 23 6 50 39 51 63 0 12 1 328 1 704 1 642 0 684 -17 702 -10 11 -24 20
-32 20 -7 0 -13 4 -13 10 0 6 -10 6 -27 -1 -16 -6 -29 -6 -31 -1 -1 5 -20 6
-42 2 -22 -4 -40 -4 -40 0 0 4 -18 4 -40 0 -22 -4 -40 -4 -40 0 0 4 -18 4 -40
0 -22 -4 -40 -4 -40 0 0 4 -18 4 -40 0 -22 -4 -40 -4 -40 0 0 4 -18 4 -40 0
-22 -4 -40 -4 -40 0 0 4 -18 4 -40 0 -22 -4 -40 -4 -40 0 0 4 -18 4 -40 0 -22
-4 -40 -4 -40 0 0 4 -18 4 -40 0 -22 -4 -40 -4 -40 1 0 5 -11 4 -25 -1 -15 -6
-25 -6 -25 0 0 5 -12 5 -30 0 -19 -5 -30 -5 -30 1 0 6 -6 7 -12 3 -17 -11 -48
-12 -48 -3 0 4 -13 4 -30 -1 -19 -5 -30 -5 -30 1 0 6 -6 7 -12 3 -17 -11 -48
-12 -48 -3 0 4 -14 4 -30 -1 -19 -5 -30 -5 -30 1 0 6 -6 7 -12 3 -17 -11 -48
-12 -48 -3 0 4 -14 4 -30 -1 -19 -5 -30 -5 -30 1 0 6 -6 7 -12 3 -17 -11 -48
-12 -48 -3 0 4 -12 4 -28 0 -15 -5 -37 -4 -50 0 -13 5 -21 5 -18 1 3 -5 -11
-8 -29 -8 -19 1 -35 4 -35 8 0 4 -13 3 -30 -2 -19 -5 -30 -5 -30 1 0 6 -6 7
-12 3 -17 -11 -48 -12 -48 -3 0 4 -13 4 -30 -1 -19 -5 -30 -5 -30 1 0 6 -6 7
-12 3 -17 -11 -48 -12 -48 -3 0 4 -13 4 -30 -1 -19 -5 -30 -5 -30 1 0 6 -6 7
-12 3 -17 -11 -48 -12 -48 -3 0 4 -13 4 -29 -1 -15 -4 -34 -4 -42 1 -8 4 -16
4 -20 -2 -4 -6 -16 -6 -35 1 -16 6 -25 8 -21 4z m1823 -83 c6 -1 22 -10 35
-22 l24 -21 1 -404 c0 -222 -3 -404 -6 -404 -4 0 -18 12 -32 28 -13 15 -40 41
-59 59 -19 17 -69 68 -113 112 -43 45 -82 81 -87 81 -5 0 -9 4 -9 8 0 15 -117
125 -152 144 -18 9 -41 15 -50 12 -10 -3 -18 -1 -18 5 0 18 -106 -8 -138 -34
-41 -33 -257 -251 -255 -257 2 -5 -1 -8 -6 -8 -13 0 -477 -463 -473 -472 1 -5
-3 -8 -9 -8 -15 0 -39 -26 -32 -34 4 -3 2 -6 -4 -6 -6 0 -41 -29 -77 -64 -60
-59 -69 -64 -105 -63 -53 3 -56 9 -21 40 16 15 30 32 30 39 0 6 2 9 5 6 7 -6
100 84 97 95 -1 4 2 7 7 7 4 0 20 11 35 25 15 14 25 25 23 25 -2 0 19 24 47
53 28 29 53 51 56 50 4 -1 12 7 19 18 11 19 1 32 -119 151 -136 136 -175 161
-235 151 -16 -2 -36 -5 -42 -5 -7 -1 -13 -6 -13 -11 0 -6 -3 -8 -6 -4 -3 3
-25 -13 -47 -36 -23 -23 -50 -48 -60 -56 -16 -13 -17 -11 -14 25 2 21 0 51 -4
66 -5 17 -3 30 3 34 6 4 5 10 -3 15 -9 5 -10 9 -2 9 11 0 10 60 -1 79 -4 5 -1
13 5 17 8 4 7 9 -2 15 -9 5 -10 9 -2 9 11 0 10 60 -1 79 -4 5 -1 13 5 17 8 4
7 9 -2 15 -8 5 -9 9 -4 9 12 0 12 181 1 199 -4 5 -1 13 5 17 8 4 7 9 -2 15 -8
5 -9 9 -3 9 6 0 9 23 8 60 -2 66 18 106 59 112 18 2 1709 2 1743 -1z"/>
<path d="M490 1708 c0 -4 -3 -7 -7 -7 -24 4 -42 -4 -75 -34 -20 -17 -37 -36
-38 -42 -1 -5 -6 -20 -11 -33 -21 -54 3 -145 47 -184 21 -19 94 -52 94 -43 0
3 9 1 20 -5 14 -7 20 -7 20 0 0 5 3 9 8 8 16 -4 72 14 72 23 0 6 4 8 8 5 8 -5
55 49 58 67 1 4 2 8 4 10 2 2 8 27 14 55 1 9 0 28 -4 42 -4 14 -9 32 -11 40
-2 8 -12 22 -21 31 -10 9 -18 21 -18 26 0 10 -51 36 -75 39 -5 1 -12 3 -15 4
-16 6 -70 5 -70 -2z"/>
</g>
</svg>
